G04 Layer_Physical_Order=2*
G04 Layer_Color=16711680*
%FSLAX25Y25*%
%MOIN*%
G70*
G01*
G75*
%ADD19C,0.03937*%
%ADD25C,0.01000*%
%ADD26C,0.11811*%
%ADD27C,0.06000*%
%ADD28C,0.07874*%
%ADD29R,0.07874X0.07874*%
%ADD30O,0.09842X0.13780*%
%ADD31C,0.07087*%
%ADD32C,0.25590*%
%ADD33C,0.09055*%
%ADD34C,0.13386*%
%ADD35C,0.01968*%
%ADD36R,0.15500X0.07500*%
%ADD37R,0.15000X0.07000*%
G36*
X383971Y1529D02*
X2029D01*
Y234809D01*
X2481Y235023D01*
X2824Y234742D01*
X3853Y234192D01*
X4969Y233853D01*
X6130Y233739D01*
X7291Y233853D01*
X8407Y234192D01*
X9436Y234742D01*
X10337Y235482D01*
X11077Y236383D01*
X11627Y237412D01*
X11965Y238528D01*
X12080Y239689D01*
Y243626D01*
X11965Y244787D01*
X11627Y245903D01*
X11077Y246932D01*
X10337Y247833D01*
X9436Y248573D01*
X8407Y249123D01*
X7291Y249462D01*
X6130Y249576D01*
X4969Y249462D01*
X3853Y249123D01*
X2824Y248573D01*
X2481Y248292D01*
X2029Y248505D01*
Y254495D01*
X2481Y254708D01*
X2824Y254427D01*
X3853Y253877D01*
X4969Y253538D01*
X6130Y253424D01*
X7291Y253538D01*
X8407Y253877D01*
X9436Y254427D01*
X10337Y255167D01*
X11077Y256068D01*
X11627Y257097D01*
X11965Y258213D01*
X12080Y259374D01*
Y263311D01*
X11965Y264472D01*
X11627Y265588D01*
X11077Y266617D01*
X10337Y267518D01*
X9436Y268258D01*
X8407Y268808D01*
X7291Y269147D01*
X6130Y269261D01*
X4969Y269147D01*
X3853Y268808D01*
X2824Y268258D01*
X2481Y267977D01*
X2029Y268191D01*
Y312971D01*
X383971D01*
Y1529D01*
D02*
G37*
%LPC*%
G36*
X19500Y100338D02*
X17335Y100168D01*
X15224Y99661D01*
X13218Y98830D01*
X11366Y97695D01*
X9715Y96285D01*
X8305Y94634D01*
X7170Y92782D01*
X6339Y90776D01*
X5832Y88665D01*
X5662Y86500D01*
X5832Y84335D01*
X6339Y82224D01*
X7170Y80218D01*
X8305Y78366D01*
X9715Y76715D01*
X11366Y75305D01*
X13218Y74170D01*
X15224Y73339D01*
X17335Y72832D01*
X19500Y72662D01*
X21665Y72832D01*
X23776Y73339D01*
X25782Y74170D01*
X27634Y75305D01*
X29285Y76715D01*
X30695Y78366D01*
X31830Y80218D01*
X32661Y82224D01*
X33168Y84335D01*
X33338Y86500D01*
X33168Y88665D01*
X32661Y90776D01*
X31830Y92782D01*
X30695Y94634D01*
X29285Y96285D01*
X27634Y97695D01*
X25782Y98830D01*
X23776Y99661D01*
X21665Y100168D01*
X19500Y100338D01*
D02*
G37*
G36*
X27000Y51980D02*
X25711Y51810D01*
X24510Y51313D01*
X23479Y50521D01*
X22688Y49490D01*
X22190Y48289D01*
X22020Y47000D01*
X22190Y45711D01*
X22688Y44510D01*
X23479Y43479D01*
X24510Y42687D01*
X25711Y42190D01*
X25962Y42157D01*
X26110Y42058D01*
X26500Y41980D01*
X32482D01*
X32500Y41977D01*
X32518Y41980D01*
X34982D01*
X35000Y41977D01*
X35018Y41980D01*
X37482D01*
X37500Y41977D01*
X37518Y41980D01*
X39982D01*
X40000Y41977D01*
X40018Y41980D01*
X41500D01*
X41890Y42058D01*
X42221Y42279D01*
X42442Y42610D01*
X42520Y43000D01*
Y50000D01*
X42442Y50390D01*
X42221Y50721D01*
X41890Y50942D01*
X41500Y51020D01*
X40018D01*
X40000Y51023D01*
X39982Y51020D01*
X37518D01*
X37500Y51023D01*
X37482Y51020D01*
X35018D01*
X35000Y51023D01*
X34982Y51020D01*
X32518D01*
X32500Y51023D01*
X32482Y51020D01*
X29871D01*
X29490Y51313D01*
X28289Y51810D01*
X27000Y51980D01*
D02*
G37*
G36*
X137993Y296606D02*
X108106D01*
X107951Y296575D01*
X107793D01*
X107020Y296421D01*
X106874Y296361D01*
X106719Y296330D01*
X105991Y296028D01*
X105859Y295940D01*
X105713Y295880D01*
X105058Y295442D01*
X104946Y295330D01*
X104815Y295242D01*
X104258Y294685D01*
X104170Y294554D01*
X104058Y294442D01*
X103620Y293787D01*
X103560Y293641D01*
X103472Y293509D01*
X103170Y292781D01*
X103139Y292626D01*
X103079Y292480D01*
X102925Y291707D01*
Y291549D01*
X102894Y291394D01*
Y291000D01*
Y192505D01*
X102394Y99009D01*
X102395Y99004D01*
X102394Y99000D01*
Y98557D01*
X102425Y98402D01*
Y98243D01*
X102598Y97374D01*
X102659Y97228D01*
X102690Y97073D01*
X103029Y96254D01*
X103117Y96122D01*
X103177Y95976D01*
X103670Y95239D01*
X103781Y95127D01*
X103869Y94996D01*
X104496Y94369D01*
X104628Y94281D01*
X104739Y94170D01*
X105476Y93677D01*
X105622Y93617D01*
X105754Y93529D01*
X106573Y93190D01*
X106728Y93159D01*
X106874Y93098D01*
X107744Y92925D01*
X107902D01*
X108057Y92894D01*
X138443D01*
X138598Y92925D01*
X138756D01*
X139626Y93098D01*
X139772Y93159D01*
X139927Y93190D01*
X140746Y93529D01*
X140877Y93617D01*
X141024Y93677D01*
X141761Y94170D01*
X141873Y94281D01*
X142004Y94369D01*
X142631Y94996D01*
X142719Y95127D01*
X142830Y95239D01*
X143323Y95976D01*
X143383Y96122D01*
X143471Y96254D01*
X143810Y97073D01*
X143841Y97228D01*
X143902Y97374D01*
X144075Y98243D01*
Y98402D01*
X144106Y98557D01*
Y99000D01*
Y290000D01*
Y290493D01*
X144075Y290648D01*
Y290806D01*
X143883Y291772D01*
X143822Y291918D01*
X143791Y292073D01*
X143414Y292983D01*
X143326Y293114D01*
X143266Y293260D01*
X142719Y294079D01*
X142607Y294191D01*
X142519Y294323D01*
X141823Y295019D01*
X141691Y295107D01*
X141579Y295219D01*
X140760Y295766D01*
X140614Y295827D01*
X140483Y295914D01*
X139573Y296291D01*
X139418Y296322D01*
X139272Y296383D01*
X138306Y296575D01*
X138148D01*
X137993Y296606D01*
D02*
G37*
G36*
X280925Y93487D02*
X280859Y93474D01*
X280792Y93479D01*
X279507Y93309D01*
X279381Y93266D01*
X279250Y93240D01*
X278053Y92745D01*
X277942Y92671D01*
X277823Y92611D01*
X276795Y91823D01*
X276707Y91722D01*
X276606Y91635D01*
X275818Y90606D01*
X275759Y90487D01*
X275684Y90376D01*
X275189Y89179D01*
X275163Y89048D01*
X275120Y88922D01*
X274951Y87637D01*
X274959Y87504D01*
X274951Y87371D01*
X275120Y86086D01*
X275163Y85960D01*
X275189Y85829D01*
X275684Y84632D01*
X275759Y84521D01*
X275818Y84401D01*
X276606Y83373D01*
X276707Y83285D01*
X276795Y83185D01*
X277823Y82396D01*
X277942Y82337D01*
X278053Y82263D01*
X279250Y81767D01*
X279381Y81741D01*
X279507Y81699D01*
X280792Y81529D01*
X280859Y81534D01*
X280925Y81521D01*
X280991Y81534D01*
X281058Y81529D01*
X282343Y81699D01*
X282469Y81741D01*
X282600Y81767D01*
X283797Y82263D01*
X283908Y82337D01*
X284028Y82396D01*
X285056Y83185D01*
X285144Y83285D01*
X285244Y83373D01*
X286033Y84401D01*
X286092Y84521D01*
X286166Y84632D01*
X286662Y85829D01*
X286688Y85960D01*
X286731Y86086D01*
X286900Y87371D01*
X286891Y87504D01*
X286900Y87637D01*
X286731Y88922D01*
X286688Y89048D01*
X286662Y89179D01*
X286166Y90376D01*
X286092Y90487D01*
X286033Y90606D01*
X285244Y91635D01*
X285144Y91723D01*
X285056Y91823D01*
X284028Y92611D01*
X283908Y92671D01*
X283797Y92745D01*
X282600Y93240D01*
X282469Y93266D01*
X282343Y93309D01*
X281058Y93479D01*
X280991Y93474D01*
X280925Y93487D01*
D02*
G37*
G36*
X174744D02*
X174678Y93474D01*
X174611Y93479D01*
X173326Y93309D01*
X173200Y93266D01*
X173069Y93240D01*
X171872Y92745D01*
X171761Y92671D01*
X171642Y92611D01*
X170614Y91823D01*
X170526Y91723D01*
X170425Y91635D01*
X169636Y90606D01*
X169578Y90487D01*
X169503Y90376D01*
X169008Y89179D01*
X168982Y89048D01*
X168939Y88922D01*
X168770Y87637D01*
X168778Y87504D01*
X168770Y87371D01*
X168939Y86086D01*
X168982Y85960D01*
X169008Y85829D01*
X169503Y84632D01*
X169578Y84521D01*
X169636Y84401D01*
X170425Y83373D01*
X170526Y83285D01*
X170614Y83185D01*
X171642Y82396D01*
X171761Y82337D01*
X171872Y82263D01*
X173069Y81767D01*
X173200Y81741D01*
X173326Y81699D01*
X174611Y81529D01*
X174678Y81534D01*
X174744Y81521D01*
X174810Y81534D01*
X174877Y81529D01*
X176162Y81699D01*
X176288Y81741D01*
X176419Y81767D01*
X177616Y82263D01*
X177727Y82337D01*
X177847Y82396D01*
X178875Y83185D01*
X178963Y83285D01*
X179063Y83373D01*
X179852Y84401D01*
X179911Y84521D01*
X179985Y84632D01*
X180481Y85829D01*
X180507Y85960D01*
X180550Y86086D01*
X180719Y87371D01*
X180710Y87504D01*
X180719Y87637D01*
X180550Y88922D01*
X180507Y89048D01*
X180481Y89179D01*
X179985Y90376D01*
X179911Y90487D01*
X179852Y90606D01*
X179063Y91635D01*
X178963Y91723D01*
X178875Y91823D01*
X177847Y92611D01*
X177727Y92671D01*
X177616Y92745D01*
X176419Y93240D01*
X176288Y93266D01*
X176162Y93309D01*
X174877Y93479D01*
X174810Y93474D01*
X174744Y93487D01*
D02*
G37*
G36*
X30937Y36957D02*
X23063D01*
X22673Y36879D01*
X22342Y36658D01*
X22121Y36327D01*
X22043Y35937D01*
Y28063D01*
X22121Y27673D01*
X22342Y27342D01*
X22673Y27121D01*
X23063Y27043D01*
X25683D01*
X26000Y26980D01*
X41500D01*
X41890Y27058D01*
X42221Y27279D01*
X42442Y27610D01*
X42520Y28000D01*
Y35500D01*
X42442Y35890D01*
X42221Y36221D01*
X41890Y36442D01*
X41500Y36520D01*
X40018D01*
X40000Y36523D01*
X39982Y36520D01*
X37518D01*
X37500Y36523D01*
X37482Y36520D01*
X35018D01*
X35000Y36523D01*
X34982Y36520D01*
X32518D01*
X32500Y36523D01*
X32482Y36520D01*
X31750D01*
X31658Y36658D01*
X31327Y36879D01*
X30937Y36957D01*
D02*
G37*
G36*
X56130Y248596D02*
X54776Y248463D01*
X53474Y248068D01*
X52275Y247427D01*
X51223Y246564D01*
X50360Y245513D01*
X49719Y244313D01*
X49324Y243011D01*
X49191Y241657D01*
X49324Y240304D01*
X49719Y239002D01*
X50360Y237802D01*
X51223Y236751D01*
X52275Y235888D01*
X53136Y235428D01*
Y114383D01*
X53238Y113608D01*
X53537Y112885D01*
X54013Y112265D01*
X112506Y53772D01*
Y29382D01*
X111118Y27994D01*
X107500D01*
X106725Y27892D01*
X106003Y27593D01*
X105383Y27117D01*
X104907Y26497D01*
X104608Y25775D01*
X104506Y25000D01*
X104608Y24225D01*
X104907Y23503D01*
X105383Y22883D01*
X106003Y22407D01*
X106725Y22108D01*
X107500Y22006D01*
X112358D01*
X113133Y22108D01*
X113855Y22407D01*
X114032Y22543D01*
X114725Y22256D01*
X115500Y22154D01*
X163755D01*
X164630Y21279D01*
X165250Y20803D01*
X165972Y20504D01*
X166747Y20402D01*
X242000D01*
X242775Y20504D01*
X243497Y20803D01*
X244117Y21279D01*
X244593Y21899D01*
X244892Y22621D01*
X244994Y23396D01*
X244892Y24171D01*
X244593Y24893D01*
X244117Y25513D01*
X243497Y25989D01*
X242775Y26288D01*
X242000Y26390D01*
X167987D01*
X167112Y27265D01*
X166492Y27741D01*
X165770Y28040D01*
X164995Y28142D01*
X118494D01*
Y55012D01*
X118392Y55787D01*
X118217Y56210D01*
X118093Y56510D01*
X117617Y57130D01*
X59124Y115623D01*
Y235428D01*
X59985Y235888D01*
X61036Y236751D01*
X61899Y237802D01*
X62541Y239002D01*
X62936Y240304D01*
X63069Y241657D01*
X62936Y243011D01*
X62541Y244313D01*
X61899Y245513D01*
X61036Y246564D01*
X59985Y247427D01*
X58785Y248068D01*
X57484Y248463D01*
X56130Y248596D01*
D02*
G37*
G36*
X364500Y39576D02*
X363057Y39386D01*
X361712Y38829D01*
X360557Y37943D01*
X359671Y36788D01*
X359114Y35443D01*
X358924Y34000D01*
X359114Y32557D01*
X359671Y31213D01*
X360557Y30058D01*
X361712Y29172D01*
X363057Y28615D01*
X364500Y28425D01*
X365943Y28615D01*
X367287Y29172D01*
X368442Y30058D01*
X369328Y31213D01*
X369885Y32557D01*
X370075Y34000D01*
X369885Y35443D01*
X369328Y36788D01*
X368442Y37943D01*
X367287Y38829D01*
X365943Y39386D01*
X364500Y39576D01*
D02*
G37*
G36*
X321000Y30838D02*
X318835Y30668D01*
X316724Y30161D01*
X314718Y29330D01*
X312866Y28195D01*
X311215Y26785D01*
X309805Y25134D01*
X308670Y23282D01*
X307839Y21276D01*
X307332Y19165D01*
X307162Y17000D01*
X307332Y14835D01*
X307839Y12724D01*
X308670Y10718D01*
X309805Y8866D01*
X311215Y7215D01*
X312866Y5805D01*
X314718Y4670D01*
X316724Y3839D01*
X318835Y3332D01*
X321000Y3162D01*
X323165Y3332D01*
X325276Y3839D01*
X327282Y4670D01*
X329134Y5805D01*
X330785Y7215D01*
X332195Y8866D01*
X333330Y10718D01*
X334161Y12724D01*
X334668Y14835D01*
X334838Y17000D01*
X334668Y19165D01*
X334161Y21276D01*
X333330Y23282D01*
X332195Y25134D01*
X330785Y26785D01*
X329134Y28195D01*
X327282Y29330D01*
X325276Y30161D01*
X323165Y30668D01*
X321000Y30838D01*
D02*
G37*
G36*
X141500Y305994D02*
X70500D01*
X69725Y305892D01*
X69003Y305593D01*
X68383Y305117D01*
X53936Y290671D01*
X53460Y290051D01*
X53161Y289328D01*
X53059Y288553D01*
Y266785D01*
X52198Y266325D01*
X51147Y265462D01*
X50284Y264410D01*
X49643Y263211D01*
X49248Y261909D01*
X49115Y260555D01*
X49248Y259201D01*
X49643Y257900D01*
X50284Y256700D01*
X51147Y255649D01*
X52198Y254786D01*
X53398Y254144D01*
X54700Y253749D01*
X56053Y253616D01*
X57407Y253749D01*
X58709Y254144D01*
X59908Y254786D01*
X60960Y255649D01*
X61823Y256700D01*
X62464Y257900D01*
X62859Y259201D01*
X62992Y260555D01*
X62859Y261909D01*
X62464Y263211D01*
X61823Y264410D01*
X60960Y265462D01*
X59908Y266325D01*
X59048Y266785D01*
Y287313D01*
X71740Y300006D01*
X140260D01*
X153006Y287260D01*
Y130000D01*
Y58240D01*
X150383Y55617D01*
X149907Y54997D01*
X149608Y54275D01*
X149506Y53500D01*
Y40994D01*
X141000D01*
X140225Y40892D01*
X139503Y40593D01*
X138883Y40117D01*
X138407Y39497D01*
X138108Y38775D01*
X138006Y38000D01*
X138108Y37225D01*
X138407Y36503D01*
X138883Y35883D01*
X139503Y35407D01*
X140225Y35108D01*
X141000Y35006D01*
X151500D01*
X152275Y35108D01*
X152997Y35407D01*
X153617Y35883D01*
X154617Y36883D01*
X155093Y37503D01*
X155217Y37802D01*
X155392Y38225D01*
X155494Y39000D01*
Y52260D01*
X158117Y54883D01*
X158593Y55503D01*
X158892Y56225D01*
X158994Y57000D01*
Y127006D01*
X171260D01*
X262518Y35748D01*
X263138Y35272D01*
X263437Y35148D01*
X263860Y34973D01*
X264635Y34871D01*
X276500D01*
X277275Y34973D01*
X277997Y35272D01*
X278617Y35748D01*
X279093Y36368D01*
X279392Y37090D01*
X279494Y37865D01*
X279392Y38640D01*
X279093Y39362D01*
X278617Y39982D01*
X277997Y40458D01*
X277275Y40757D01*
X276500Y40859D01*
X265875D01*
X174617Y132117D01*
X173997Y132593D01*
X173275Y132892D01*
X172500Y132994D01*
X158994D01*
Y288500D01*
X158892Y289275D01*
X158593Y289997D01*
X158117Y290617D01*
X143617Y305117D01*
X142997Y305593D01*
X142275Y305892D01*
X141500Y305994D01*
D02*
G37*
G36*
X364500Y125576D02*
X363057Y125386D01*
X361712Y124829D01*
X360557Y123943D01*
X359671Y122788D01*
X359114Y121443D01*
X358924Y120000D01*
X359114Y118557D01*
X359671Y117213D01*
X360557Y116058D01*
X361712Y115172D01*
X363057Y114615D01*
X364500Y114425D01*
X365943Y114615D01*
X367287Y115172D01*
X368442Y116058D01*
X369328Y117213D01*
X369885Y118557D01*
X370075Y120000D01*
X369885Y121443D01*
X369328Y122788D01*
X368442Y123943D01*
X367287Y124829D01*
X365943Y125386D01*
X364500Y125576D01*
D02*
G37*
G36*
X84870Y267494D02*
X83516Y267361D01*
X82215Y266966D01*
X81015Y266325D01*
X79963Y265462D01*
X79101Y264410D01*
X78459Y263211D01*
X78261Y262558D01*
X77739D01*
X77541Y263211D01*
X76899Y264410D01*
X76037Y265462D01*
X74985Y266325D01*
X73785Y266966D01*
X72484Y267361D01*
X71130Y267494D01*
X69776Y267361D01*
X68475Y266966D01*
X67275Y266325D01*
X66223Y265462D01*
X65360Y264410D01*
X64719Y263211D01*
X64324Y261909D01*
X64191Y260555D01*
X64324Y259201D01*
X64719Y257900D01*
X65360Y256700D01*
X66223Y255649D01*
X67275Y254786D01*
X68475Y254144D01*
X69776Y253749D01*
X71130Y253616D01*
X72484Y253749D01*
X73785Y254144D01*
X74985Y254786D01*
X76037Y255649D01*
X76899Y256700D01*
X77541Y257900D01*
X77739Y258553D01*
X78261D01*
X78459Y257900D01*
X79101Y256700D01*
X79963Y255649D01*
X81015Y254786D01*
X82215Y254144D01*
X83516Y253749D01*
X84870Y253616D01*
X86224Y253749D01*
X87525Y254144D01*
X88725Y254786D01*
X89777Y255649D01*
X90640Y256700D01*
X91281Y257900D01*
X91676Y259201D01*
X91809Y260555D01*
X91676Y261909D01*
X91281Y263211D01*
X90640Y264410D01*
X89777Y265462D01*
X88725Y266325D01*
X87525Y266966D01*
X86224Y267361D01*
X84870Y267494D01*
D02*
G37*
G36*
Y248596D02*
X83516Y248463D01*
X82215Y248068D01*
X81015Y247427D01*
X79963Y246564D01*
X79101Y245513D01*
X78459Y244313D01*
X78261Y243660D01*
X77739D01*
X77541Y244313D01*
X76899Y245513D01*
X76037Y246564D01*
X74985Y247427D01*
X73785Y248068D01*
X72484Y248463D01*
X71130Y248596D01*
X69776Y248463D01*
X68475Y248068D01*
X67275Y247427D01*
X66223Y246564D01*
X65360Y245513D01*
X64719Y244313D01*
X64324Y243011D01*
X64191Y241657D01*
X64324Y240304D01*
X64719Y239002D01*
X65360Y237802D01*
X66223Y236751D01*
X67275Y235888D01*
X68475Y235247D01*
X69776Y234852D01*
X71130Y234719D01*
X72484Y234852D01*
X73785Y235247D01*
X74985Y235888D01*
X76037Y236751D01*
X76899Y237802D01*
X77541Y239002D01*
X77739Y239655D01*
X78261D01*
X78459Y239002D01*
X79101Y237802D01*
X79963Y236751D01*
X81015Y235888D01*
X82215Y235247D01*
X83516Y234852D01*
X84870Y234719D01*
X86224Y234852D01*
X87525Y235247D01*
X88725Y235888D01*
X89777Y236751D01*
X90640Y237802D01*
X91281Y239002D01*
X91676Y240304D01*
X91809Y241657D01*
X91676Y243011D01*
X91281Y244313D01*
X90640Y245513D01*
X89777Y246564D01*
X88725Y247427D01*
X87525Y248068D01*
X86224Y248463D01*
X84870Y248596D01*
D02*
G37*
G36*
X19000Y309338D02*
X16835Y309168D01*
X14724Y308661D01*
X12718Y307830D01*
X10866Y306695D01*
X9215Y305285D01*
X7805Y303634D01*
X6670Y301782D01*
X5839Y299776D01*
X5332Y297665D01*
X5162Y295500D01*
X5332Y293335D01*
X5839Y291224D01*
X6670Y289218D01*
X7805Y287366D01*
X9215Y285715D01*
X10866Y284305D01*
X12718Y283170D01*
X14724Y282339D01*
X16835Y281832D01*
X19000Y281662D01*
X21165Y281832D01*
X23276Y282339D01*
X25282Y283170D01*
X27134Y284305D01*
X28785Y285715D01*
X30195Y287366D01*
X31330Y289218D01*
X32161Y291224D01*
X32668Y293335D01*
X32838Y295500D01*
X32668Y297665D01*
X32161Y299776D01*
X31330Y301782D01*
X30195Y303634D01*
X28785Y305285D01*
X27134Y306695D01*
X25282Y307830D01*
X23276Y308661D01*
X21165Y309168D01*
X19000Y309338D01*
D02*
G37*
G36*
X227854Y301979D02*
X227788Y301966D01*
X227721Y301971D01*
X226436Y301801D01*
X226310Y301759D01*
X226179Y301733D01*
X224982Y301237D01*
X224871Y301163D01*
X224752Y301104D01*
X223724Y300315D01*
X223636Y300215D01*
X223536Y300127D01*
X222747Y299099D01*
X222688Y298979D01*
X222614Y298868D01*
X222118Y297671D01*
X222092Y297540D01*
X222049Y297414D01*
X221880Y296129D01*
X221888Y295996D01*
X221880Y295863D01*
X222049Y294578D01*
X222092Y294452D01*
X222118Y294321D01*
X222614Y293124D01*
X222688Y293013D01*
X222747Y292894D01*
X223536Y291865D01*
X223636Y291778D01*
X223724Y291677D01*
X224752Y290888D01*
X224871Y290829D01*
X224982Y290755D01*
X226179Y290260D01*
X226310Y290233D01*
X226436Y290191D01*
X227721Y290021D01*
X227788Y290026D01*
X227854Y290013D01*
X227920Y290026D01*
X227987Y290021D01*
X229272Y290191D01*
X229398Y290233D01*
X229529Y290260D01*
X230726Y290755D01*
X230837Y290829D01*
X230957Y290888D01*
X231985Y291677D01*
X232073Y291778D01*
X232173Y291865D01*
X232962Y292894D01*
X233021Y293013D01*
X233095Y293124D01*
X233591Y294321D01*
X233617Y294452D01*
X233660Y294578D01*
X233829Y295863D01*
X233820Y295996D01*
X233829Y296129D01*
X233660Y297414D01*
X233617Y297540D01*
X233591Y297671D01*
X233095Y298868D01*
X233021Y298979D01*
X232962Y299099D01*
X232173Y300127D01*
X232073Y300215D01*
X231985Y300315D01*
X230957Y301104D01*
X230837Y301163D01*
X230726Y301237D01*
X229529Y301733D01*
X229398Y301759D01*
X229272Y301801D01*
X227987Y301971D01*
X227920Y301966D01*
X227854Y301979D01*
D02*
G37*
G36*
X362000Y309338D02*
X359835Y309168D01*
X357724Y308661D01*
X355718Y307830D01*
X353866Y306695D01*
X352215Y305285D01*
X350805Y303634D01*
X349670Y301782D01*
X348839Y299776D01*
X348332Y297665D01*
X348162Y295500D01*
X348332Y293335D01*
X348839Y291224D01*
X349670Y289218D01*
X350805Y287366D01*
X352215Y285715D01*
X353866Y284305D01*
X355718Y283170D01*
X357724Y282339D01*
X359835Y281832D01*
X362000Y281662D01*
X364165Y281832D01*
X366276Y282339D01*
X368282Y283170D01*
X370134Y284305D01*
X371785Y285715D01*
X373195Y287366D01*
X374330Y289218D01*
X375161Y291224D01*
X375668Y293335D01*
X375838Y295500D01*
X375668Y297665D01*
X375161Y299776D01*
X374330Y301782D01*
X373195Y303634D01*
X371785Y305285D01*
X370134Y306695D01*
X368282Y307830D01*
X366276Y308661D01*
X364165Y309168D01*
X362000Y309338D01*
D02*
G37*
G36*
X280925Y213987D02*
X280859Y213974D01*
X280792Y213979D01*
X279507Y213809D01*
X279381Y213767D01*
X279250Y213740D01*
X278053Y213245D01*
X277942Y213171D01*
X277823Y213111D01*
X276795Y212323D01*
X276707Y212222D01*
X276606Y212135D01*
X275818Y211106D01*
X275759Y210987D01*
X275684Y210876D01*
X275189Y209679D01*
X275163Y209548D01*
X275120Y209422D01*
X274951Y208137D01*
X274959Y208004D01*
X274951Y207871D01*
X275120Y206586D01*
X275163Y206460D01*
X275189Y206329D01*
X275684Y205132D01*
X275759Y205021D01*
X275818Y204901D01*
X276606Y203873D01*
X276707Y203785D01*
X276795Y203685D01*
X277823Y202896D01*
X277942Y202837D01*
X278053Y202763D01*
X279250Y202267D01*
X279381Y202241D01*
X279507Y202199D01*
X280792Y202029D01*
X280859Y202034D01*
X280925Y202021D01*
X280991Y202034D01*
X281058Y202029D01*
X282343Y202199D01*
X282469Y202241D01*
X282600Y202267D01*
X283797Y202763D01*
X283908Y202837D01*
X284028Y202896D01*
X285056Y203685D01*
X285144Y203785D01*
X285244Y203873D01*
X286033Y204901D01*
X286092Y205021D01*
X286166Y205132D01*
X286662Y206329D01*
X286688Y206460D01*
X286731Y206586D01*
X286900Y207871D01*
X286891Y208004D01*
X286900Y208137D01*
X286731Y209422D01*
X286688Y209548D01*
X286662Y209679D01*
X286166Y210876D01*
X286092Y210987D01*
X286033Y211106D01*
X285244Y212135D01*
X285144Y212223D01*
X285056Y212323D01*
X284028Y213111D01*
X283908Y213171D01*
X283797Y213245D01*
X282600Y213740D01*
X282469Y213767D01*
X282343Y213809D01*
X281058Y213979D01*
X280991Y213974D01*
X280925Y213987D01*
D02*
G37*
G36*
X227854Y181479D02*
X227788Y181466D01*
X227721Y181471D01*
X226436Y181301D01*
X226310Y181259D01*
X226179Y181233D01*
X224982Y180737D01*
X224871Y180663D01*
X224752Y180604D01*
X223724Y179815D01*
X223636Y179715D01*
X223536Y179627D01*
X222747Y178599D01*
X222688Y178479D01*
X222614Y178368D01*
X222118Y177171D01*
X222092Y177040D01*
X222049Y176914D01*
X221880Y175629D01*
X221888Y175496D01*
X221880Y175363D01*
X222049Y174078D01*
X222092Y173952D01*
X222118Y173821D01*
X222614Y172624D01*
X222688Y172513D01*
X222747Y172394D01*
X223536Y171365D01*
X223636Y171277D01*
X223724Y171177D01*
X224752Y170388D01*
X224871Y170329D01*
X224982Y170255D01*
X226179Y169760D01*
X226310Y169734D01*
X226436Y169691D01*
X227721Y169521D01*
X227788Y169526D01*
X227854Y169513D01*
X227920Y169526D01*
X227987Y169521D01*
X229272Y169691D01*
X229398Y169734D01*
X229529Y169760D01*
X230726Y170255D01*
X230837Y170329D01*
X230957Y170388D01*
X231985Y171177D01*
X232073Y171277D01*
X232173Y171365D01*
X232962Y172394D01*
X233021Y172513D01*
X233095Y172624D01*
X233591Y173821D01*
X233617Y173952D01*
X233660Y174078D01*
X233829Y175363D01*
X233820Y175496D01*
X233829Y175629D01*
X233660Y176914D01*
X233617Y177040D01*
X233591Y177171D01*
X233095Y178368D01*
X233021Y178479D01*
X232962Y178599D01*
X232173Y179627D01*
X232073Y179715D01*
X231985Y179815D01*
X230957Y180604D01*
X230837Y180663D01*
X230726Y180737D01*
X229529Y181233D01*
X229398Y181259D01*
X229272Y181301D01*
X227987Y181471D01*
X227920Y181466D01*
X227854Y181479D01*
D02*
G37*
G36*
X18000Y211582D02*
X16814Y211426D01*
X15709Y210969D01*
X14760Y210240D01*
X14031Y209291D01*
X13574Y208186D01*
X13418Y207000D01*
X13574Y205814D01*
X14031Y204709D01*
X14760Y203760D01*
X15709Y203031D01*
X16814Y202574D01*
X18000Y202417D01*
X19186Y202574D01*
X20291Y203031D01*
X21240Y203760D01*
X21969Y204709D01*
X22426Y205814D01*
X22582Y207000D01*
X22426Y208186D01*
X21969Y209291D01*
X21240Y210240D01*
X20291Y210969D01*
X19186Y211426D01*
X18000Y211582D01*
D02*
G37*
G36*
X174744Y213987D02*
X174678Y213974D01*
X174611Y213979D01*
X173326Y213809D01*
X173200Y213767D01*
X173069Y213740D01*
X171872Y213245D01*
X171761Y213171D01*
X171642Y213111D01*
X170614Y212323D01*
X170526Y212222D01*
X170425Y212135D01*
X169636Y211106D01*
X169578Y210987D01*
X169503Y210876D01*
X169008Y209679D01*
X168982Y209548D01*
X168939Y209422D01*
X168770Y208137D01*
X168778Y208004D01*
X168770Y207871D01*
X168939Y206586D01*
X168982Y206460D01*
X169008Y206329D01*
X169503Y205132D01*
X169578Y205021D01*
X169636Y204901D01*
X170425Y203873D01*
X170526Y203785D01*
X170614Y203685D01*
X171642Y202896D01*
X171761Y202837D01*
X171872Y202763D01*
X173069Y202267D01*
X173200Y202241D01*
X173326Y202199D01*
X174611Y202029D01*
X174678Y202034D01*
X174744Y202021D01*
X174810Y202034D01*
X174877Y202029D01*
X176162Y202199D01*
X176288Y202241D01*
X176419Y202267D01*
X177616Y202763D01*
X177727Y202837D01*
X177847Y202896D01*
X178875Y203685D01*
X178963Y203785D01*
X179063Y203873D01*
X179852Y204901D01*
X179911Y205021D01*
X179985Y205132D01*
X180481Y206329D01*
X180507Y206460D01*
X180550Y206586D01*
X180719Y207871D01*
X180710Y208004D01*
X180719Y208137D01*
X180550Y209422D01*
X180507Y209548D01*
X180481Y209679D01*
X179985Y210876D01*
X179911Y210987D01*
X179852Y211106D01*
X179063Y212135D01*
X178963Y212223D01*
X178875Y212323D01*
X177847Y213111D01*
X177727Y213171D01*
X177616Y213245D01*
X176419Y213740D01*
X176288Y213767D01*
X176162Y213809D01*
X174877Y213979D01*
X174810Y213974D01*
X174744Y213987D01*
D02*
G37*
%LPD*%
G36*
X138958Y294808D02*
X139868Y294431D01*
X140687Y293884D01*
X141384Y293187D01*
X141931Y292368D01*
X142308Y291458D01*
X142500Y290493D01*
Y290000D01*
Y99000D01*
Y98557D01*
X142327Y97687D01*
X141988Y96868D01*
X141495Y96131D01*
X140869Y95505D01*
X140131Y95012D01*
X139313Y94673D01*
X138443Y94500D01*
X108057D01*
X107187Y94673D01*
X106369Y95012D01*
X105631Y95505D01*
X105005Y96131D01*
X104512Y96868D01*
X104173Y97687D01*
X104000Y98557D01*
Y99000D01*
X104500Y192500D01*
Y291000D01*
Y291394D01*
X104654Y292167D01*
X104955Y292895D01*
X105393Y293550D01*
X105950Y294107D01*
X106605Y294545D01*
X107333Y294846D01*
X108106Y295000D01*
X137993D01*
X138958Y294808D01*
D02*
G37*
%LPC*%
G36*
X129075Y113104D02*
X127721Y112971D01*
X126419Y112576D01*
X125220Y111935D01*
X124168Y111072D01*
X123305Y110020D01*
X122664Y108821D01*
X122269Y107519D01*
X122136Y106165D01*
X122269Y104812D01*
X122664Y103510D01*
X123305Y102310D01*
X124168Y101259D01*
X125220Y100396D01*
X126419Y99755D01*
X127721Y99360D01*
X129075Y99226D01*
X130429Y99360D01*
X131730Y99755D01*
X132930Y100396D01*
X133981Y101259D01*
X134844Y102310D01*
X135485Y103510D01*
X135880Y104812D01*
X136014Y106165D01*
X135880Y107519D01*
X135485Y108821D01*
X134844Y110020D01*
X133981Y111072D01*
X132930Y111935D01*
X131730Y112576D01*
X130429Y112971D01*
X129075Y113104D01*
D02*
G37*
G36*
Y283604D02*
X127721Y283471D01*
X126419Y283076D01*
X125220Y282435D01*
X124168Y281572D01*
X123305Y280520D01*
X122664Y279321D01*
X122269Y278019D01*
X122136Y276665D01*
X122269Y275312D01*
X122664Y274010D01*
X123305Y272810D01*
X124168Y271759D01*
X125220Y270896D01*
X126419Y270255D01*
X127721Y269860D01*
X129075Y269726D01*
X130429Y269860D01*
X131730Y270255D01*
X132930Y270896D01*
X133981Y271759D01*
X134844Y272810D01*
X135485Y274010D01*
X135880Y275312D01*
X136014Y276665D01*
X135880Y278019D01*
X135485Y279321D01*
X134844Y280520D01*
X133981Y281572D01*
X132930Y282435D01*
X131730Y283076D01*
X130429Y283471D01*
X129075Y283604D01*
D02*
G37*
%LPD*%
D19*
X56053Y260555D02*
Y288553D01*
X70500Y303000D01*
X141500D01*
X107500Y25000D02*
X110000D01*
X112358D01*
X56130Y114383D02*
Y241657D01*
Y114383D02*
X115500Y55012D01*
X141000Y38000D02*
X151500D01*
X152500Y39000D01*
Y53500D01*
X156000Y57000D01*
X141500Y303000D02*
X156000Y288500D01*
X166747Y23396D02*
X242000D01*
X156000Y130000D02*
X172500D01*
X156000Y57000D02*
Y130000D01*
Y288500D01*
X172500Y130000D02*
X264635Y37865D01*
X276500D01*
X115500Y25148D02*
Y55012D01*
Y25148D02*
X164995D01*
X166747Y23396D01*
X112358Y25000D02*
X115500Y28142D01*
D25*
X0Y0D02*
Y284500D01*
Y0D02*
X385500D01*
X385827D02*
Y314961D01*
X0D02*
X385827D01*
X0Y284500D02*
Y314961D01*
D26*
X129075Y106165D02*
D03*
Y156165D02*
D03*
Y226665D02*
D03*
Y276665D02*
D03*
X84870Y241657D02*
D03*
X71130D02*
D03*
X56130D02*
D03*
X56053Y260555D02*
D03*
X71130D02*
D03*
X84870D02*
D03*
D27*
X174744Y87504D02*
D03*
X280925D02*
D03*
X227854Y175496D02*
D03*
X174744Y208004D02*
D03*
X280925D02*
D03*
X227854Y295996D02*
D03*
D28*
X27000Y47000D02*
D03*
D29*
Y32000D02*
D03*
D30*
X6130Y241657D02*
D03*
Y261343D02*
D03*
D31*
X18000Y207000D02*
D03*
Y197000D02*
D03*
D32*
X19000Y295500D02*
D03*
X19500Y86500D02*
D03*
X362000Y295500D02*
D03*
X321000Y17000D02*
D03*
D33*
X364500Y120000D02*
D03*
Y34000D02*
D03*
D34*
X351508Y132992D02*
D03*
Y107008D02*
D03*
X377492D02*
D03*
Y132992D02*
D03*
X351508Y46992D02*
D03*
Y21008D02*
D03*
X377492D02*
D03*
Y46992D02*
D03*
D35*
X100014Y188900D02*
D03*
X97500D02*
D03*
Y191200D02*
D03*
Y193700D02*
D03*
X99900Y193800D02*
D03*
X106100Y189200D02*
D03*
X108500Y189300D02*
D03*
Y191800D02*
D03*
Y194100D02*
D03*
X105986D02*
D03*
X93100Y36658D02*
D03*
X83900Y51859D02*
D03*
X82500Y22300D02*
D03*
Y28779D02*
D03*
X381799Y275445D02*
D03*
X373925Y259697D02*
D03*
X381799Y243949D02*
D03*
X373925Y228201D02*
D03*
X381799Y212453D02*
D03*
X373925Y196705D02*
D03*
X381799Y180957D02*
D03*
X373925Y165209D02*
D03*
X381799Y149461D02*
D03*
Y117964D02*
D03*
Y86468D02*
D03*
X373925Y70720D02*
D03*
Y7728D02*
D03*
X366051Y275445D02*
D03*
X358177Y259697D02*
D03*
X366051Y243949D02*
D03*
X358177Y228201D02*
D03*
X366051Y212453D02*
D03*
X358177Y196705D02*
D03*
X366051Y180957D02*
D03*
X358177Y165209D02*
D03*
X366051Y149461D02*
D03*
Y86468D02*
D03*
X358177Y70720D02*
D03*
X366051Y54972D02*
D03*
X358177Y7728D02*
D03*
X342429Y291193D02*
D03*
X350303Y275445D02*
D03*
X342429Y259697D02*
D03*
X350303Y243949D02*
D03*
X342429Y228201D02*
D03*
X350303Y212453D02*
D03*
X342429Y196705D02*
D03*
X350303Y180957D02*
D03*
X342429Y165209D02*
D03*
X350303Y149461D02*
D03*
Y86468D02*
D03*
X342429Y70720D02*
D03*
Y7728D02*
D03*
X326681Y291193D02*
D03*
X334555Y275445D02*
D03*
X326681Y259697D02*
D03*
X334555Y243949D02*
D03*
X326681Y228201D02*
D03*
X334555Y212453D02*
D03*
X326681Y196705D02*
D03*
X334555Y180957D02*
D03*
X326681Y165209D02*
D03*
X334555Y149461D02*
D03*
X326681Y133713D02*
D03*
Y102216D02*
D03*
X334555Y86468D02*
D03*
X326681Y70720D02*
D03*
X334555Y54972D02*
D03*
Y23476D02*
D03*
X310933Y291193D02*
D03*
X318807Y275445D02*
D03*
X310933Y259697D02*
D03*
X318807Y243949D02*
D03*
X310933Y228201D02*
D03*
X318807Y212453D02*
D03*
X310933Y196705D02*
D03*
X318807Y180957D02*
D03*
X310933Y165209D02*
D03*
X318807Y149461D02*
D03*
X310933Y133713D02*
D03*
Y102216D02*
D03*
X318807Y86468D02*
D03*
X310933Y70720D02*
D03*
X318807Y54972D02*
D03*
X295185Y291193D02*
D03*
X303059Y275445D02*
D03*
X295185Y259697D02*
D03*
X303059Y243949D02*
D03*
X295185Y228201D02*
D03*
X303059Y212453D02*
D03*
X295185Y196705D02*
D03*
X303059Y180957D02*
D03*
X295185Y165209D02*
D03*
X303059Y149461D02*
D03*
X295185Y133713D02*
D03*
Y102216D02*
D03*
X303059Y86468D02*
D03*
Y54972D02*
D03*
Y23476D02*
D03*
X279437Y291193D02*
D03*
X287311Y275445D02*
D03*
X279437Y259697D02*
D03*
X287311Y243949D02*
D03*
X279437Y228201D02*
D03*
X287311Y212453D02*
D03*
X279437Y196705D02*
D03*
X287311Y180957D02*
D03*
X279437Y165209D02*
D03*
X287311Y149461D02*
D03*
X279437Y133713D02*
D03*
Y102216D02*
D03*
X263689Y291193D02*
D03*
X271563Y275445D02*
D03*
X263689Y259697D02*
D03*
X271563Y243949D02*
D03*
X263689Y228201D02*
D03*
X271563Y212453D02*
D03*
X263689Y196705D02*
D03*
X271563Y180957D02*
D03*
X263689Y165209D02*
D03*
X271563Y149461D02*
D03*
X263689Y133713D02*
D03*
Y102216D02*
D03*
X271563Y86468D02*
D03*
Y54972D02*
D03*
Y23476D02*
D03*
X247941Y291193D02*
D03*
X255815Y275445D02*
D03*
X247941Y259697D02*
D03*
X255815Y243949D02*
D03*
X247941Y228201D02*
D03*
X255815Y212453D02*
D03*
X247941Y196705D02*
D03*
X255815Y180957D02*
D03*
X247941Y165209D02*
D03*
X255815Y149461D02*
D03*
X247941Y133713D02*
D03*
X255815Y86468D02*
D03*
Y54972D02*
D03*
Y23476D02*
D03*
X240067Y275445D02*
D03*
X232193Y259697D02*
D03*
X240067Y243949D02*
D03*
X232193Y228201D02*
D03*
X240067Y212453D02*
D03*
X232193Y196705D02*
D03*
X240067Y180957D02*
D03*
X232193Y165209D02*
D03*
X240067Y149461D02*
D03*
X232193Y133713D02*
D03*
X240067Y117964D02*
D03*
Y86468D02*
D03*
X216445Y291193D02*
D03*
X224319Y275445D02*
D03*
X216445Y259697D02*
D03*
X224319Y243949D02*
D03*
X216445Y228201D02*
D03*
X224319Y212453D02*
D03*
X216445Y196705D02*
D03*
Y165209D02*
D03*
X224319Y149461D02*
D03*
X216445Y133713D02*
D03*
X224319Y117964D02*
D03*
X216445Y102216D02*
D03*
X200697Y291193D02*
D03*
X208571Y275445D02*
D03*
X200697Y259697D02*
D03*
X208571Y243949D02*
D03*
X200697Y228201D02*
D03*
X208571Y212453D02*
D03*
X200697Y196705D02*
D03*
X208571Y180957D02*
D03*
X200697Y165209D02*
D03*
X208571Y149461D02*
D03*
X200697Y133713D02*
D03*
X208571Y117964D02*
D03*
Y54972D02*
D03*
X200697Y7728D02*
D03*
X184949Y291193D02*
D03*
X192823Y275445D02*
D03*
X184949Y259697D02*
D03*
X192823Y243949D02*
D03*
X184949Y228201D02*
D03*
X192823Y212453D02*
D03*
X184949Y196705D02*
D03*
X192823Y180957D02*
D03*
X184949Y165209D02*
D03*
X192823Y149461D02*
D03*
X184949Y133713D02*
D03*
X192823Y117964D02*
D03*
X184949Y102216D02*
D03*
X192823Y86468D02*
D03*
X184949Y70720D02*
D03*
Y7728D02*
D03*
X169201Y291193D02*
D03*
X177075Y275445D02*
D03*
X169201Y259697D02*
D03*
X177075Y243949D02*
D03*
X169201Y228201D02*
D03*
Y196705D02*
D03*
X177075Y180957D02*
D03*
X169201Y165209D02*
D03*
X177075Y149461D02*
D03*
Y117964D02*
D03*
X169201Y102216D02*
D03*
X161327Y275445D02*
D03*
Y243949D02*
D03*
Y212453D02*
D03*
Y180957D02*
D03*
Y149461D02*
D03*
Y117964D02*
D03*
Y86468D02*
D03*
X145579Y275445D02*
D03*
Y243949D02*
D03*
Y212453D02*
D03*
Y180957D02*
D03*
Y149461D02*
D03*
Y117964D02*
D03*
Y86468D02*
D03*
Y54972D02*
D03*
X129831Y86468D02*
D03*
Y54972D02*
D03*
X114083Y86468D02*
D03*
X106209Y70720D02*
D03*
X98335Y243949D02*
D03*
X90461Y228201D02*
D03*
X98335Y212453D02*
D03*
X90461Y196705D02*
D03*
X98335Y180957D02*
D03*
X90461Y165209D02*
D03*
X98335Y149461D02*
D03*
X90461Y133713D02*
D03*
Y102216D02*
D03*
X98335Y86468D02*
D03*
Y54972D02*
D03*
Y23476D02*
D03*
X74713Y291193D02*
D03*
X82587Y212453D02*
D03*
Y180957D02*
D03*
Y149461D02*
D03*
Y117964D02*
D03*
X66839Y275445D02*
D03*
Y212453D02*
D03*
Y180957D02*
D03*
Y149461D02*
D03*
Y117964D02*
D03*
X58965Y70720D02*
D03*
Y7728D02*
D03*
X43216Y291193D02*
D03*
X51091Y275445D02*
D03*
X43216Y228201D02*
D03*
X51091Y212453D02*
D03*
X43216Y196705D02*
D03*
X51091Y180957D02*
D03*
X43216Y165209D02*
D03*
X51091Y149461D02*
D03*
X43216Y133713D02*
D03*
X51091Y117964D02*
D03*
X43216Y102216D02*
D03*
Y70720D02*
D03*
Y7728D02*
D03*
X35342Y275445D02*
D03*
X27468Y259697D02*
D03*
X35342Y243949D02*
D03*
Y212453D02*
D03*
X27468Y196705D02*
D03*
X35342Y180957D02*
D03*
X27468Y165209D02*
D03*
X35342Y149461D02*
D03*
X27468Y133713D02*
D03*
X35342Y117964D02*
D03*
X27468Y102216D02*
D03*
X35342Y86468D02*
D03*
X27468Y70720D02*
D03*
Y7728D02*
D03*
X19594Y275445D02*
D03*
Y243949D02*
D03*
X11720Y228201D02*
D03*
X19594Y180957D02*
D03*
X11720Y165209D02*
D03*
X19594Y149461D02*
D03*
X11720Y133713D02*
D03*
X19594Y117964D02*
D03*
X11720Y102216D02*
D03*
Y70720D02*
D03*
X19594Y54972D02*
D03*
X11720Y39224D02*
D03*
Y7728D02*
D03*
X117000Y106000D02*
D03*
X113000D02*
D03*
X112358Y125000D02*
D03*
X117500D02*
D03*
X116500Y284000D02*
D03*
X112500D02*
D03*
X112000Y263500D02*
D03*
X117000D02*
D03*
X32500Y34500D02*
D03*
Y32000D02*
D03*
Y29500D02*
D03*
X35000D02*
D03*
X37500D02*
D03*
X40000D02*
D03*
X35000Y32000D02*
D03*
X37500D02*
D03*
X40000D02*
D03*
Y34500D02*
D03*
X37500D02*
D03*
X35000D02*
D03*
Y49000D02*
D03*
X37500D02*
D03*
X40000D02*
D03*
Y46500D02*
D03*
X37500D02*
D03*
X35000D02*
D03*
X40000Y44000D02*
D03*
X37500D02*
D03*
X35000D02*
D03*
X32500D02*
D03*
Y46500D02*
D03*
Y49000D02*
D03*
X114500Y16000D02*
D03*
X110500D02*
D03*
X104512D02*
D03*
X87500Y286500D02*
D03*
X83500D02*
D03*
X65500Y222000D02*
D03*
Y218500D02*
D03*
X107500Y25000D02*
D03*
X110000D02*
D03*
X112358D02*
D03*
X76000Y23396D02*
D03*
Y19047D02*
D03*
Y10349D02*
D03*
Y14698D02*
D03*
Y6000D02*
D03*
X85947D02*
D03*
X80974D02*
D03*
X90921D02*
D03*
X95895D02*
D03*
X110816D02*
D03*
X100868D02*
D03*
X105842D02*
D03*
X125737D02*
D03*
X130710D02*
D03*
X120763D02*
D03*
X115789D02*
D03*
X135684D02*
D03*
X140658D02*
D03*
X150605D02*
D03*
X145632D02*
D03*
X155579D02*
D03*
X165526D02*
D03*
X160553D02*
D03*
X170500D02*
D03*
X170500Y14698D02*
D03*
Y10349D02*
D03*
Y31071D02*
D03*
Y34714D02*
D03*
X160553Y67000D02*
D03*
X165526D02*
D03*
X145632D02*
D03*
X150605D02*
D03*
X140658D02*
D03*
X135684D02*
D03*
X115789D02*
D03*
X120763D02*
D03*
X130711D02*
D03*
X125737D02*
D03*
X110816D02*
D03*
X95895D02*
D03*
X90921D02*
D03*
X80974D02*
D03*
X85947D02*
D03*
X76000Y54250D02*
D03*
Y58500D02*
D03*
Y62750D02*
D03*
Y67000D02*
D03*
X170500Y67000D02*
D03*
Y62214D02*
D03*
Y57429D02*
D03*
Y52643D02*
D03*
X110146Y149461D02*
D03*
X119988Y169146D02*
D03*
Y208516D02*
D03*
X110146Y228201D02*
D03*
X119988Y247886D02*
D03*
X139673Y129776D02*
D03*
Y169146D02*
D03*
X129831Y188831D02*
D03*
X139673Y208516D02*
D03*
Y247886D02*
D03*
X129831Y267571D02*
D03*
X28292Y52842D02*
D03*
X34140Y52023D02*
D03*
X40046D02*
D03*
X45951D02*
D03*
X51757Y50942D02*
D03*
X52023Y45042D02*
D03*
X47740Y40977D02*
D03*
X41834D02*
D03*
X35929D02*
D03*
X30023D02*
D03*
X24167Y41741D02*
D03*
X21023Y46740D02*
D03*
X50770Y37865D02*
D03*
X52023Y32094D02*
D03*
X50995Y26279D02*
D03*
X45098Y25977D02*
D03*
X39192D02*
D03*
X33287D02*
D03*
X27381D02*
D03*
X21531Y26784D02*
D03*
X21040Y32669D02*
D03*
X23663Y37960D02*
D03*
X29569D02*
D03*
X35458Y37523D02*
D03*
X41343Y38019D02*
D03*
X47248D02*
D03*
X76000Y50000D02*
D03*
Y27745D02*
D03*
Y32094D02*
D03*
X141000Y38000D02*
D03*
X147000D02*
D03*
X152500Y37865D02*
D03*
X228121Y57500D02*
D03*
X230000Y55500D02*
D03*
X170500Y19047D02*
D03*
X170500Y27429D02*
D03*
X242000Y23396D02*
D03*
X239250D02*
D03*
X236500D02*
D03*
X144000Y45500D02*
D03*
X146000Y44032D02*
D03*
X148500D02*
D03*
X276500Y38000D02*
D03*
X271500D02*
D03*
X269000D02*
D03*
X281500Y44532D02*
D03*
X275500Y44500D02*
D03*
X273500Y46252D02*
D03*
X279500Y46500D02*
D03*
X244000Y15500D02*
D03*
X242000Y14000D02*
D03*
X238000Y15500D02*
D03*
X236000Y14000D02*
D03*
X215500Y6000D02*
D03*
Y10349D02*
D03*
Y15000D02*
D03*
Y19500D02*
D03*
Y28000D02*
D03*
X219941Y6000D02*
D03*
X224382D02*
D03*
X228823D02*
D03*
X233265D02*
D03*
X237706D02*
D03*
X242147D02*
D03*
X246588D02*
D03*
X251029D02*
D03*
X255470D02*
D03*
X259912D02*
D03*
X264353D02*
D03*
X268794D02*
D03*
X273235D02*
D03*
X277676D02*
D03*
X282118D02*
D03*
X286559D02*
D03*
X291000D02*
D03*
X291000Y10400D02*
D03*
Y14800D02*
D03*
Y19200D02*
D03*
Y23600D02*
D03*
Y28000D02*
D03*
X215500Y38500D02*
D03*
Y42571D02*
D03*
Y46643D02*
D03*
Y50714D02*
D03*
Y54786D02*
D03*
Y58857D02*
D03*
Y67000D02*
D03*
Y62928D02*
D03*
X291000Y67000D02*
D03*
X291000Y62928D02*
D03*
Y58857D02*
D03*
Y54786D02*
D03*
Y50714D02*
D03*
Y46643D02*
D03*
Y42571D02*
D03*
Y38500D02*
D03*
X286616Y67000D02*
D03*
X282232D02*
D03*
X277848D02*
D03*
X273464D02*
D03*
X269079D02*
D03*
X264695D02*
D03*
X260311D02*
D03*
X255927D02*
D03*
X251543D02*
D03*
X247159D02*
D03*
X242775D02*
D03*
X228823D02*
D03*
X219941Y67000D02*
D03*
X224382Y67000D02*
D03*
X67266Y51369D02*
D03*
X71850Y47646D02*
D03*
X77606Y46326D02*
D03*
X74397Y40674D02*
D03*
X68837Y42666D02*
D03*
X63177Y40981D02*
D03*
X57272D02*
D03*
X54981Y46424D02*
D03*
X57960Y51523D02*
D03*
X63865D02*
D03*
X74198Y34343D02*
D03*
X69412Y30884D02*
D03*
X64588Y27477D02*
D03*
X58683D02*
D03*
X54981Y32078D02*
D03*
X56213Y37854D02*
D03*
X62116Y38019D02*
D03*
X67995Y37460D02*
D03*
X365946Y126417D02*
D03*
X370493Y122649D02*
D03*
X370196Y116751D02*
D03*
X365269Y113494D02*
D03*
X359714Y115497D02*
D03*
X353996Y116974D02*
D03*
X348090D02*
D03*
X342185D02*
D03*
X336279D02*
D03*
X330374D02*
D03*
X324468D02*
D03*
X318563D02*
D03*
X312657D02*
D03*
X306752D02*
D03*
X300846D02*
D03*
X294941D02*
D03*
X289035D02*
D03*
X283130D02*
D03*
X277224D02*
D03*
X271319D02*
D03*
X265413D02*
D03*
X259508D02*
D03*
X253809Y115425D02*
D03*
X249582Y111301D02*
D03*
X245406Y107125D02*
D03*
X241230Y102950D02*
D03*
X237054Y98774D02*
D03*
X232878Y94598D02*
D03*
X228702Y90422D02*
D03*
X224527Y86246D02*
D03*
X216175Y77895D02*
D03*
X211999Y73719D02*
D03*
X207823Y69543D02*
D03*
X203647Y65367D02*
D03*
X199472Y61191D02*
D03*
X195296Y57016D02*
D03*
X191120Y52840D02*
D03*
X186944Y48664D02*
D03*
X182040Y45374D02*
D03*
X176200Y44497D02*
D03*
X170294D02*
D03*
X166568Y51515D02*
D03*
X172395Y50550D02*
D03*
X178299Y50638D02*
D03*
X183376Y53656D02*
D03*
X187551Y57832D02*
D03*
X191727Y62007D02*
D03*
X195903Y66183D02*
D03*
X200079Y70359D02*
D03*
X204255Y74535D02*
D03*
X208430Y78711D02*
D03*
X212606Y82887D02*
D03*
X220958Y91238D02*
D03*
X225134Y95414D02*
D03*
X229310Y99590D02*
D03*
X233485Y103766D02*
D03*
X237661Y107941D02*
D03*
X241837Y112117D02*
D03*
X246013Y116293D02*
D03*
X250272Y120384D02*
D03*
X255668Y122783D02*
D03*
X261569Y123027D02*
D03*
X267474D02*
D03*
X273380D02*
D03*
X279285D02*
D03*
X285191D02*
D03*
X291096D02*
D03*
X297002D02*
D03*
X302907D02*
D03*
X308813D02*
D03*
X314718D02*
D03*
X320624D02*
D03*
X326529D02*
D03*
X332435D02*
D03*
X338340D02*
D03*
X344246D02*
D03*
X350151D02*
D03*
X356057D02*
D03*
X326380Y43838D02*
D03*
X332197Y42815D02*
D03*
X337617Y40470D02*
D03*
X342552Y37227D02*
D03*
X348454Y37027D02*
D03*
X354360D02*
D03*
X359997Y38787D02*
D03*
X365662Y40455D02*
D03*
X370385Y36909D02*
D03*
X370349Y31004D02*
D03*
X365570Y27534D02*
D03*
X359931Y29289D02*
D03*
X354271Y30974D02*
D03*
X348366D02*
D03*
X342461Y31085D02*
D03*
X336933Y33162D02*
D03*
X332111Y36571D02*
D03*
X326222Y36131D02*
D03*
X173230Y44008D02*
D03*
X179136D02*
D03*
X185041D02*
D03*
X190883Y43144D02*
D03*
X195638Y39642D02*
D03*
X200473Y36251D02*
D03*
X206375Y36027D02*
D03*
X212280D02*
D03*
X218186D02*
D03*
X224091D02*
D03*
X229997D02*
D03*
X246425Y32763D02*
D03*
X229658Y29973D02*
D03*
X223753D02*
D03*
X217847D02*
D03*
X211942D02*
D03*
X206036D02*
D03*
X200133Y30136D02*
D03*
X194652Y32335D02*
D03*
X190340Y36370D02*
D03*
X184651Y37955D02*
D03*
X178746D02*
D03*
X172840D02*
D03*
X167002Y37068D02*
D03*
X236730Y52527D02*
D03*
X242610Y51976D02*
D03*
X247728Y49030D02*
D03*
X251915Y44865D02*
D03*
X256091Y40690D02*
D03*
X284125Y36027D02*
D03*
X290031D02*
D03*
X295935Y36130D02*
D03*
X300953Y39243D02*
D03*
X305975Y42351D02*
D03*
X311842Y43027D02*
D03*
X317668Y43992D02*
D03*
X316845Y36008D02*
D03*
X311019Y36973D02*
D03*
X305417Y35104D02*
D03*
X300804Y31416D02*
D03*
X295079Y29970D02*
D03*
X289173Y29973D02*
D03*
X283268D02*
D03*
X277362D02*
D03*
X271457D02*
D03*
X255017Y33261D02*
D03*
X250812Y37407D02*
D03*
X246636Y41583D02*
D03*
X236430Y46473D02*
D03*
X232129Y42426D02*
D03*
X155579Y6000D02*
D03*
X161318Y51361D02*
D03*
X160635Y34103D02*
D03*
X155927Y30538D02*
D03*
X150049Y29973D02*
D03*
X144143D02*
D03*
X127016Y32114D02*
D03*
X122642Y36082D02*
D03*
X118466Y40257D02*
D03*
X103069Y41228D02*
D03*
X100871Y48586D02*
D03*
X106473Y50453D02*
D03*
X112379Y50467D02*
D03*
X122470Y44814D02*
D03*
X126646Y40638D02*
D03*
D36*
X33750Y31750D02*
D03*
D37*
X34000Y46500D02*
D03*
M02*
