G04 Layer_Color=8388736*
%FSLAX25Y25*%
%MOIN*%
G70*
G01*
G75*
%ADD25C,0.01000*%
%ADD41R,0.30300X0.03937*%
%ADD42R,0.30441X0.03937*%
%ADD43R,0.98425X0.03937*%
%ADD44R,0.03937X0.30055*%
%ADD45R,0.03937X0.21641*%
%ADD46R,0.03937X0.32000*%
%ADD47R,0.03937X0.17995*%
%ADD48R,0.79500X0.03937*%
%ADD49R,0.03937X0.25929*%
%ADD50R,0.03937X0.32571*%
%ADD51R,0.79000X0.03937*%
%ADD52R,0.10288X0.07296*%
%ADD53R,0.03950X0.04737*%
%ADD54O,0.11036X0.03556*%
%ADD55R,0.06115X0.05918*%
%ADD56R,0.04737X0.03950*%
%ADD57C,0.12611*%
%ADD58C,0.06800*%
%ADD59C,0.08674*%
%ADD60R,0.08674X0.08674*%
%ADD61O,0.10642X0.14579*%
%ADD62C,0.07887*%
%ADD63C,0.26391*%
%ADD64C,0.09855*%
%ADD65C,0.14186*%
D25*
X0Y0D02*
Y284500D01*
Y0D02*
X385500D01*
X385827D02*
Y314961D01*
X0D02*
X385827D01*
X0Y284500D02*
Y314961D01*
D41*
X17150Y17531D02*
D03*
D42*
X17221Y61468D02*
D03*
D43*
X123207Y66969D02*
D03*
Y5968D02*
D03*
D44*
X75963Y19027D02*
D03*
D45*
Y57821D02*
D03*
D46*
X170463Y20500D02*
D03*
D47*
Y59939D02*
D03*
D48*
X253250Y5968D02*
D03*
D49*
X215463Y16964D02*
D03*
X291032D02*
D03*
D50*
X215463Y52714D02*
D03*
X290963D02*
D03*
D51*
X253000Y67032D02*
D03*
D52*
X61748Y46252D02*
D03*
Y32748D02*
D03*
X45252D02*
D03*
Y46252D02*
D03*
D53*
X324031Y40000D02*
D03*
X317969D02*
D03*
X106032Y114000D02*
D03*
X99968D02*
D03*
X106032Y276665D02*
D03*
X99968D02*
D03*
X165032Y40981D02*
D03*
X158968D02*
D03*
X88032Y43500D02*
D03*
X81968D02*
D03*
X88032Y37169D02*
D03*
X81968D02*
D03*
X228532Y49500D02*
D03*
X222468D02*
D03*
Y55500D02*
D03*
X228532D02*
D03*
X64468Y220000D02*
D03*
X70531D02*
D03*
X29032Y216000D02*
D03*
X22968D02*
D03*
X106032Y191500D02*
D03*
X99968D02*
D03*
X81968Y31000D02*
D03*
X88032D02*
D03*
X88032Y24500D02*
D03*
X81968D02*
D03*
X99532Y43500D02*
D03*
X93468D02*
D03*
X88032Y49500D02*
D03*
X81968D02*
D03*
X165032Y47524D02*
D03*
X158968D02*
D03*
X228532Y43523D02*
D03*
X222468D02*
D03*
D54*
X134705Y28000D02*
D03*
Y33000D02*
D03*
Y38000D02*
D03*
Y43000D02*
D03*
X110295Y28000D02*
D03*
Y33000D02*
D03*
Y38000D02*
D03*
Y43000D02*
D03*
X263705Y28000D02*
D03*
Y33000D02*
D03*
Y38000D02*
D03*
Y43000D02*
D03*
X239295Y28000D02*
D03*
Y33000D02*
D03*
Y38000D02*
D03*
Y43000D02*
D03*
D55*
X115000Y126831D02*
D03*
Y118169D02*
D03*
X114500Y270831D02*
D03*
Y262169D02*
D03*
D56*
X115000Y104969D02*
D03*
Y111031D02*
D03*
X114500Y278468D02*
D03*
Y284531D02*
D03*
X150500Y37969D02*
D03*
Y44032D02*
D03*
X144000Y37969D02*
D03*
Y44032D02*
D03*
X106500Y15469D02*
D03*
Y21531D02*
D03*
X112500Y15469D02*
D03*
Y21531D02*
D03*
X273500Y38469D02*
D03*
Y44532D02*
D03*
X279500Y38469D02*
D03*
Y44532D02*
D03*
X242000Y15469D02*
D03*
Y21531D02*
D03*
X236000Y15469D02*
D03*
Y21531D02*
D03*
X85500Y279468D02*
D03*
Y285531D02*
D03*
D57*
X129075Y106165D02*
D03*
Y156165D02*
D03*
Y226665D02*
D03*
Y276665D02*
D03*
X84870Y241657D02*
D03*
X71130D02*
D03*
X56130D02*
D03*
X56053Y260555D02*
D03*
X71130D02*
D03*
X84870D02*
D03*
D58*
X174744Y87504D02*
D03*
X280925D02*
D03*
X227854Y175496D02*
D03*
X174744Y208004D02*
D03*
X280925D02*
D03*
X227854Y295996D02*
D03*
D59*
X27000Y47000D02*
D03*
D60*
Y32000D02*
D03*
D61*
X6130Y241657D02*
D03*
Y261343D02*
D03*
D62*
X18000Y207000D02*
D03*
Y197000D02*
D03*
D63*
X19000Y295500D02*
D03*
X19500Y86500D02*
D03*
X362000Y295500D02*
D03*
X321000Y17000D02*
D03*
D64*
X364500Y120000D02*
D03*
Y34000D02*
D03*
D65*
X351508Y132992D02*
D03*
Y107008D02*
D03*
X377492D02*
D03*
Y132992D02*
D03*
X351508Y46992D02*
D03*
Y21008D02*
D03*
X377492D02*
D03*
Y46992D02*
D03*
M02*
