G04 Layer_Color=16711935*
%FSLAX25Y25*%
%MOIN*%
G70*
G01*
G75*
%ADD25C,0.01000*%
%ADD39C,0.00394*%
D25*
X0Y0D02*
Y284500D01*
Y0D02*
X385500D01*
X385827D02*
Y314961D01*
X0D02*
X385827D01*
X0Y284500D02*
Y314961D01*
D39*
X66000Y31508D02*
Y47492D01*
X41000Y31508D02*
X66000D01*
X41000D02*
Y47492D01*
X66000D01*
X317752Y38327D02*
X324248D01*
X317752Y41673D02*
X324248D01*
Y38327D02*
Y41673D01*
X317752Y38327D02*
Y41673D01*
X99752Y112327D02*
X106248D01*
X99752Y115673D02*
X106248D01*
Y112327D02*
Y115673D01*
X99752Y112327D02*
Y115673D01*
Y274992D02*
X106248D01*
X99752Y278339D02*
X106248D01*
Y274992D02*
Y278339D01*
X99752Y274992D02*
Y278339D01*
X-4496Y21788D02*
Y57260D01*
X31724Y21788D02*
Y57260D01*
X-4496Y21788D02*
X31724D01*
X-4496Y57260D02*
X31724D01*
X158752Y39308D02*
X165248D01*
X158752Y42654D02*
X165248D01*
Y39308D02*
Y42654D01*
X158752Y39308D02*
Y42654D01*
X81752Y41827D02*
X88248D01*
X81752Y45173D02*
X88248D01*
Y41827D02*
Y45173D01*
X81752Y41827D02*
Y45173D01*
Y35496D02*
X88248D01*
X81752Y38842D02*
X88248D01*
Y35496D02*
Y38842D01*
X81752Y35496D02*
Y38842D01*
X222252Y47827D02*
X228748D01*
X222252Y51173D02*
X228748D01*
Y47827D02*
Y51173D01*
X222252Y47827D02*
Y51173D01*
Y57173D02*
X228748D01*
X222252Y53827D02*
X228748D01*
X222252D02*
Y57173D01*
X228748Y53827D02*
Y57173D01*
X25677Y192945D02*
Y211055D01*
X677Y192945D02*
X25677D01*
X677D02*
Y211055D01*
X25677D01*
X117461Y118465D02*
Y126535D01*
X112539Y118465D02*
Y126535D01*
X117461D01*
X112539Y118465D02*
X117461D01*
X113327Y104752D02*
Y111248D01*
X116673Y104752D02*
Y111248D01*
X113327Y104752D02*
X116673D01*
X113327Y111248D02*
X116673D01*
X116961Y262465D02*
Y270535D01*
X112039Y262465D02*
Y270535D01*
X116961D01*
X112039Y262465D02*
X116961D01*
X112827Y278252D02*
Y284748D01*
X116173Y278252D02*
Y284748D01*
X112827Y278252D02*
X116173D01*
X112827Y284748D02*
X116173D01*
X148827Y37752D02*
Y44248D01*
X152173Y37752D02*
Y44248D01*
X148827Y37752D02*
X152173D01*
X148827Y44248D02*
X152173D01*
X142327Y37752D02*
Y44248D01*
X145673Y37752D02*
Y44248D01*
X142327Y37752D02*
X145673D01*
X142327Y44248D02*
X145673D01*
X104827Y15252D02*
Y21748D01*
X108173Y15252D02*
Y21748D01*
X104827Y15252D02*
X108173D01*
X104827Y21748D02*
X108173D01*
X110827Y15252D02*
Y21748D01*
X114173Y15252D02*
Y21748D01*
X110827Y15252D02*
X114173D01*
X110827Y21748D02*
X114173D01*
X64252Y221673D02*
X70748D01*
X64252Y218327D02*
X70748D01*
X64252D02*
Y221673D01*
X70748Y218327D02*
Y221673D01*
X22752Y214327D02*
X29248D01*
X22752Y217673D02*
X29248D01*
Y214327D02*
Y217673D01*
X22752Y214327D02*
Y217673D01*
X99752Y189827D02*
X106248D01*
X99752Y193173D02*
X106248D01*
Y189827D02*
Y193173D01*
X99752Y189827D02*
Y193173D01*
X81752Y32673D02*
X88248D01*
X81752Y29327D02*
X88248D01*
X81752D02*
Y32673D01*
X88248Y29327D02*
Y32673D01*
X81752Y22827D02*
X88248D01*
X81752Y26173D02*
X88248D01*
Y22827D02*
Y26173D01*
X81752Y22827D02*
Y26173D01*
X93252Y41827D02*
X99748D01*
X93252Y45173D02*
X99748D01*
Y41827D02*
Y45173D01*
X93252Y41827D02*
Y45173D01*
X81752Y47827D02*
X88248D01*
X81752Y51173D02*
X88248D01*
Y47827D02*
Y51173D01*
X81752Y47827D02*
Y51173D01*
X158752Y45850D02*
X165248D01*
X158752Y49197D02*
X165248D01*
Y45850D02*
Y49197D01*
X158752Y45850D02*
Y49197D01*
X222252Y41850D02*
X228748D01*
X222252Y45196D02*
X228748D01*
Y41850D02*
Y45196D01*
X222252Y41850D02*
Y45196D01*
X271827Y38252D02*
Y44748D01*
X275173Y38252D02*
Y44748D01*
X271827Y38252D02*
X275173D01*
X271827Y44748D02*
X275173D01*
X277827Y38252D02*
Y44748D01*
X281173Y38252D02*
Y44748D01*
X277827Y38252D02*
X281173D01*
X277827Y44748D02*
X281173D01*
X240327Y15252D02*
Y21748D01*
X243673Y15252D02*
Y21748D01*
X240327Y15252D02*
X243673D01*
X240327Y21748D02*
X243673D01*
X234327Y15252D02*
Y21748D01*
X237673Y15252D02*
Y21748D01*
X234327Y15252D02*
X237673D01*
X234327Y21748D02*
X237673D01*
X83827Y279252D02*
Y285748D01*
X87173Y279252D02*
Y285748D01*
X83827Y279252D02*
X87173D01*
X83827Y285748D02*
X87173D01*
X376902Y107598D02*
Y132402D01*
X352098Y107598D02*
X376902D01*
X352098D02*
Y132402D01*
X376902D01*
Y21598D02*
Y46402D01*
X352098Y21598D02*
X376902D01*
X352098D02*
Y46402D01*
X376902D01*
M02*
