G04 Layer_Color=255*
%FSLAX25Y25*%
%MOIN*%
G70*
G01*
G75*
%ADD13R,0.09488X0.06496*%
%ADD14R,0.03150X0.03937*%
%ADD15O,0.10236X0.02756*%
%ADD16R,0.05315X0.05118*%
%ADD17R,0.03937X0.03150*%
%ADD25C,0.01000*%
%ADD26C,0.11811*%
%ADD27C,0.06000*%
%ADD28C,0.07874*%
%ADD29R,0.07874X0.07874*%
%ADD30O,0.09842X0.13780*%
%ADD31C,0.07087*%
%ADD32C,0.25590*%
%ADD33C,0.09055*%
%ADD34C,0.13386*%
D13*
X61748Y46252D02*
D03*
Y32748D02*
D03*
X45252D02*
D03*
Y46252D02*
D03*
D14*
X324031Y40000D02*
D03*
X317969D02*
D03*
X106032Y114000D02*
D03*
X99968D02*
D03*
X106032Y276665D02*
D03*
X99968D02*
D03*
X165032Y40981D02*
D03*
X158968D02*
D03*
X88032Y43500D02*
D03*
X81968D02*
D03*
X88032Y37169D02*
D03*
X81968D02*
D03*
X228532Y49500D02*
D03*
X222468D02*
D03*
Y55500D02*
D03*
X228532D02*
D03*
X64468Y220000D02*
D03*
X70531D02*
D03*
X29032Y216000D02*
D03*
X22968D02*
D03*
X106032Y191500D02*
D03*
X99968D02*
D03*
X81968Y31000D02*
D03*
X88032D02*
D03*
X88032Y24500D02*
D03*
X81968D02*
D03*
X99532Y43500D02*
D03*
X93468D02*
D03*
X88032Y49500D02*
D03*
X81968D02*
D03*
X165032Y47524D02*
D03*
X158968D02*
D03*
X228532Y43523D02*
D03*
X222468D02*
D03*
D15*
X134705Y28000D02*
D03*
Y33000D02*
D03*
Y38000D02*
D03*
Y43000D02*
D03*
X110295Y28000D02*
D03*
Y33000D02*
D03*
Y38000D02*
D03*
Y43000D02*
D03*
X263705Y28000D02*
D03*
Y33000D02*
D03*
Y38000D02*
D03*
Y43000D02*
D03*
X239295Y28000D02*
D03*
Y33000D02*
D03*
Y38000D02*
D03*
Y43000D02*
D03*
D16*
X115000Y126831D02*
D03*
Y118169D02*
D03*
X114500Y270831D02*
D03*
Y262169D02*
D03*
D17*
X115000Y104969D02*
D03*
Y111031D02*
D03*
X114500Y278468D02*
D03*
Y284531D02*
D03*
X150500Y37969D02*
D03*
Y44032D02*
D03*
X144000Y37969D02*
D03*
Y44032D02*
D03*
X106500Y15469D02*
D03*
Y21531D02*
D03*
X112500Y15469D02*
D03*
Y21531D02*
D03*
X273500Y38469D02*
D03*
Y44532D02*
D03*
X279500Y38469D02*
D03*
Y44532D02*
D03*
X242000Y15469D02*
D03*
Y21531D02*
D03*
X236000Y15469D02*
D03*
Y21531D02*
D03*
X85500Y279468D02*
D03*
Y285531D02*
D03*
D25*
X0Y0D02*
Y284500D01*
Y0D02*
X385500D01*
X385827D02*
Y314961D01*
X0D02*
X385827D01*
X0Y284500D02*
Y314961D01*
D26*
X129075Y106165D02*
D03*
Y156165D02*
D03*
Y226665D02*
D03*
Y276665D02*
D03*
X84870Y241657D02*
D03*
X71130D02*
D03*
X56130D02*
D03*
X56053Y260555D02*
D03*
X71130D02*
D03*
X84870D02*
D03*
D27*
X174744Y87504D02*
D03*
X280925D02*
D03*
X227854Y175496D02*
D03*
X174744Y208004D02*
D03*
X280925D02*
D03*
X227854Y295996D02*
D03*
D28*
X27000Y47000D02*
D03*
D29*
Y32000D02*
D03*
D30*
X6130Y241657D02*
D03*
Y261343D02*
D03*
D31*
X18000Y207000D02*
D03*
Y197000D02*
D03*
D32*
X19000Y295500D02*
D03*
X19500Y86500D02*
D03*
X362000Y295500D02*
D03*
X321000Y17000D02*
D03*
D33*
X364500Y120000D02*
D03*
Y34000D02*
D03*
D34*
X351508Y132992D02*
D03*
Y107008D02*
D03*
X377492D02*
D03*
Y132992D02*
D03*
X351508Y46992D02*
D03*
Y21008D02*
D03*
X377492D02*
D03*
Y46992D02*
D03*
M02*
