M48
;Layer_Color=9474304
;FILE_FORMAT=2:5
INCH,LZ
;TYPE=PLATED
T1F00S00C0.01181
T2F00S00C0.04331
T3F00S00C0.04724
T4F00S00C0.05118
T5F00S00C0.05906
T6F00S00C0.06693
T7F00S00C0.07087
T8F00S00C0.09055
%
T01
X0246588Y0006
X0251029
X025547
X0259912
X0264353
X0268794
X0273235
X0277676
X0282118
X0286559
X0291
X0291Y00104
Y00148
Y00192
Y00236
Y0028
X0289173Y0029973
X0283268
X0277362
X0271457
X0271563Y0023476
X02715Y0038
X0269
X02765
X02755Y00445
X02735Y0046252
X02795Y00465
X02815Y0044532
X0284125Y0036027
X0290031
X0291Y00385
Y0042571
Y0046643
Y0050714
Y0054786
Y0058857
Y0062928
X0291Y0067
X0286616
X0282232
X0277848
X0273464
X0269079
X0264695
X0260311
X0255927
X0251543
X0247159
X0247728Y004903
X0251915Y0044865
X0256091Y004069
X0255017Y0033261
X0250812Y0037407
X0246636Y0041583
X0246425Y0032763
X0255815Y0023476
Y0054972
X0271563
X0303059
X0305975Y0042351
X0311842Y0043027
X0317668Y0043992
X0316845Y0036008
X0311019Y0036973
X0305417Y0035104
X0300804Y0031416
X0295079Y002997
X0295935Y003613
X0300953Y0039243
X0303059Y0023476
X0334555
X0336933Y0033162
X0342461Y0031085
X0348366Y0030974
X0354271
X035436Y0037027
X0348454
X0342552Y0037227
X0337617Y004047
X0332197Y0042815
X0332111Y0036571
X0326222Y0036131
X032638Y0043838
X0318807Y0054972
X0334555
X0326681Y007072
X0342429
X0358177
X0373925
X0381799Y0086468
X0366051
X0350303
X0334555
X0318807
X0303059
X0295185Y0102216
X0294941Y0116974
X0300846
X0306752
X0312657
X0318563
X0324468
X0330374
X0336279
X0342185
X034809
X0353996
X0359714Y0115497
X0365269Y0113494
X0370196Y0116751
X0370493Y0122649
X0365946Y0126417
X0356057Y0123027
X0350151
X0344246
X033834
X0332435
X0326529
X0320624
X0314718
X0308813
X0302907
X0297002
X0291096
X0285191
X0279285
X027338
X0267474
X0261569
X0255668Y0122783
X0250272Y0120384
X0246013Y0116293
X0249582Y0111301
X0253809Y0115425
X0259508Y0116974
X0265413
X0271319
X0277224
X028313
X0289035
X0295185Y0133713
X0310933
X0326681
Y0102216
X0310933
Y007072
X0271563Y0086468
X0255815
X0263689Y0102216
X0279437
Y0133713
X0263689
X0247941
X0245406Y0107125
X0381799Y0117964
X0366051Y0054972
X0365662Y0040455
X0359997Y0038787
X0359931Y0029289
X036557Y0027534
X0370349Y0031004
X0370385Y0036909
X0373925Y0007728
X0358177
X0342429
X0242147Y0006
X0237706
X0233265
X0228823
X0224382
X0219941
X02155
Y0010349
Y0015
Y00195
Y0028
X0217847Y0029973
X0223753
X0229658
X0229997Y0036027
X0224091
X0218186
X02155Y00385
Y0042571
Y0046643
Y0050714
Y0054786
Y0058857
Y0062928
Y0067
X0219941Y0067
X0224382Y0067
X0228823
X0228121Y00575
X023Y00555
X023673Y0052527
X023643Y0046473
X0232129Y0042426
X024261Y0051976
X0242775Y0067
X0240067Y0086468
X0237054Y0098774
X0232878Y0094598
X0228702Y0090422
X0224527Y0086246
X0220958Y0091238
X0225134Y0095414
X022931Y009959
X0233485Y0103766
X0237661Y0107941
X0241837Y0112117
X0240067Y0117964
X0224319
X0208571
X0192823
X0177075
X0161327
X0145579
X0139673Y0129776
X01175Y0125
X0112358
X0113Y0106
X0117
X0114083Y0086468
X0129831
X0145579
X0161327
X0160553Y0067
X0165526
X01705
Y0062214
Y0057429
Y0052643
X0172395Y005055
X0178299Y0050638
X0179136Y0044008
X01762Y0044497
X017323Y0044008
X0170294Y0044497
X017284Y0037955
X01705Y0034714
Y0031071
Y0027429
X01705Y0019047
X01705Y0014698
Y0010349
X01705Y0006
X0165526
X0160553
X0155579
X0150605
X0145632
X0140658
X0135684
X013071
X0125737
X0120763
X0115789
X0110816
X0105842
X0100868
X0095895
X0090921
X0104512Y0016
X01105
X01145
X0112358Y0025
X011
X01075
X0098335Y0023476
X00931Y0036658
X0103069Y0041228
X0100871Y0048586
X0106473Y0050453
X0112379Y0050467
X012247Y0044814
X0126646Y0040638
X0122642Y0036082
X0127016Y0032114
X0118466Y0040257
X0141Y0038
X0147
X01525Y0037865
X01485Y0044032
X0146
X0144Y00455
X0145579Y0054972
X0145632Y0067
X0150605
X0140658
X0135684
X0130711
X0125737
X0120763
X0115789
X0110816
X0106209Y007072
X0095895Y0067
X0090921
X0098335Y0054972
X0129831
X0161318Y0051361
X0166568Y0051515
X0167002Y0037068
X0160635Y0034103
X0155927Y0030538
X0150049Y0029973
X0144143
X0178746Y0037955
X0184651
X0185041Y0044008
X018204Y0045374
X0186944Y0048664
X019112Y005284
X0195296Y0057016
X0199472Y0061191
X0203647Y0065367
X0207823Y0069543
X0211999Y0073719
X0216175Y0077895
X020843Y0078711
X0204255Y0074535
X0200079Y0070359
X0195903Y0066183
X0191727Y0062007
X0187551Y0057832
X0183376Y0053656
X0190883Y0043144
X019034Y003637
X0194652Y0032335
X0200133Y0030136
X0206036Y0029973
X0211942
X021228Y0036027
X0206375
X0200473Y0036251
X0195638Y0039642
X0208571Y0054972
X0212606Y0082887
X0216445Y0102216
X024123Y010295
X0232193Y0133713
X0216445
X0200697
X0184949
Y0102216
X0169201
X0192823Y0086468
X0184949Y007072
Y0007728
X0200697
X0236Y0014
X0238Y00155
X0242Y0014
X0244Y00155
X0242Y0023396
X023925
X02365
X0098335Y0086468
X0090461Y0102216
Y0133713
X0082587Y0117964
X0066839
X0051091
X0035342
X0019594
X001172Y0133713
X0027468
X0043216
Y0102216
X0027468
X001172
Y007072
X0027468
X0043216
X0058965
X005796Y0051523
X0063865
X0067266Y0051369
X007185Y0047646
X0076Y005
Y005425
Y00585
Y006275
Y0067
X0080974Y0067
X0085947
X00839Y0051859
X0077606Y0046326
X0074397Y0040674
X0074198Y0034343
X0076Y0032094
Y0027745
Y0023396
Y0019047
Y0014698
Y0010349
Y0006
X0080974
X0085947
X00825Y00223
Y0028779
X0069412Y0030884
X0067995Y003746
X0068837Y0042666
X0063177Y0040981
X0062116Y0038019
X0056213Y0037854
X0057272Y0040981
X0054981Y0046424
X0052023Y0045042
X0051757Y0050942
X0045951Y0052023
X0040046
X004Y0049
X00375
X0035
Y00465
X00375
X004
Y0044
X00375
X0035
X00325
Y00465
Y0049
X003414Y0052023
X0028292Y0052842
X0019594Y0054972
X0021023Y004674
X0024167Y0041741
X0023663Y003796
X0029569
X0030023Y0040977
X0035929
X0035458Y0037523
X0035Y00345
X00325
Y0032
Y00295
X0035
X00375
X004
Y0032
X00375
X0035
X00375Y00345
X004
X0041343Y0038019
X0041834Y0040977
X004774
X0047248Y0038019
X005077Y0037865
X0052023Y0032094
X0054981Y0032078
X0058683Y0027477
X0064588
X0050995Y0026279
X0045098Y0025977
X0039192
X0033287
X0027381
X0021531Y0026784
X002104Y0032669
X001172Y0039224
Y0007728
X0027468
X0043216
X0058965
X0035342Y0086468
Y0149461
X0051091
X0066839
X0082587
Y0180957
X0066839
X0051091
X0035342
X0019594
X001172Y0165209
X0027468
X0043216
Y0196705
X0027468
X0035342Y0212453
X0051091
X0066839
X00655Y02185
Y0222
X0082587Y0212453
X0043216Y0228201
X0035342Y0243949
X0019594
X001172Y0228201
X0027468Y0259697
X0035342Y0275445
X0051091
X0066839
X0074713Y0291193
X00835Y02865
X00875
X0043216Y0291193
X0019594Y0275445
Y0149461
X0098335
X0110146Y0149461
X0119988Y0169146
X0139673
X0145579Y0180957
X0161327
X0177075
X0192823
X0208571
X0200697Y0196705
X0216445
X0232193
X0240067Y0212453
X0224319
X0208571
X0192823
X0184949Y0228201
X0200697
X0216445
X0232193
X0240067Y0243949
X0224319
X0208571
X0192823
X0177075
X0161327
X0145579
X0139673Y0247886
X0119988
X0117Y02635
X0112
X01125Y0284
X01165
X0129831Y0267571
X0145579Y0275445
X0161327
X0177075
X0192823
X0208571
X0224319
X0240067
X0232193Y0259697
X0216445
X0200697
X0184949
X0169201
Y0291193
X0184949
X0200697
X0216445
X0169201Y0228201
X0161327Y0212453
X0145579
X0139673Y0208516
X0119988
X0098335Y0212453
X00975Y01937
Y01912
Y01889
X0100014
X00999Y01938
X0105986Y01941
X01085
Y01918
Y01893
X01061Y01892
X0098335Y0180957
X0090461Y0196705
Y0228201
X0110146Y0228201
X0098335Y0243949
X0090461Y0165209
X0129831Y0188831
X0169201Y0196705
X0184949
Y0165209
X0200697
X0216445
X0232193
X0240067Y0180957
Y0149461
X0224319
X0208571
X0192823
X0177075
X0161327
X0145579
X0169201Y0165209
X0247941
X0263689
X0279437
X0295185
X0310933
X0326681
X0342429
X0358177
X0373925
X0381799Y0180957
X0366051
X0350303
X0334555
X0318807
X0303059
X0287311
X0271563
X0255815
X0247941Y0196705
X0263689
X0279437
X0295185
X0310933
X0326681
X0342429
X0358177
X0373925
X0381799Y0212453
X0366051
X0350303
X0334555
X0318807
X0303059
X0287311
X0271563
X0255815
X0247941Y0228201
X0263689
X0279437
X0295185
X0310933
X0326681
X0342429
X0358177
X0373925
X0381799Y0243949
X0366051
X0350303
X0334555
X0318807
X0303059
X0287311
X0271563
X0255815
X0247941Y0259697
X0263689
X0279437
X0295185
X0310933
X0326681
X0342429
X0358177
X0373925
X0381799Y0275445
X0366051
X0350303
X0334555
X0318807
X0303059
X0287311
X0271563
X0255815
X0247941Y0291193
X0263689
X0279437
X0295185
X0310933
X0326681
X0342429
X0350303Y0149461
X0366051
X0381799
X0334555
X0318807
X0303059
X0287311
X0271563
X0255815
T02
X0018Y0197
Y0207
T03
X0129075Y0106165
Y0156165
Y0226665
Y0276665
T04
X0027Y0032
Y0047
T05
X03645Y0034
Y012
T06
X000613Y0241657
Y0261343
T07
X005613Y0241657
X007113
X008487
Y0260555
X007113
X0056053
T08
X0351508Y0021008
Y0046992
X0377492
Y0021008
Y0107008
X0351508
Y0132992
X0377492
M30
