M48
;Layer_Color=9474304
;FILE_FORMAT=2:5
INCH,LZ
T11F00S00C0.20000
%
G90
G05
T11
G00X0385694Y-0010523
M15
G01X0385902Y-0010543
G01X0387888Y-0010328
G01X0389654Y-0009782
G01X0390038Y-0009623
G01X0391797Y-0008678
G01X0393334Y-0007402
G01X0394587Y-0005846
G01X0395449Y-0004211
G01X0395608Y-0003827
G01X0396185Y-0001914
G01X0396369Y0000075
G01X0396328Y0000454
G01X039637Y0314959
G01X039617Y0316947
G01X0395608Y0318788
G01X0395449Y0319171
G01X0394504Y0320931
G01X0393229Y0322468
G01X0391673Y0323721
G01X0390038Y0324583
G01X0389654Y0324742
G01X0387741Y0325318
G01X0385752Y0325503
G01X0385372Y0325462
G01X0000001Y0325503
G01X-0001986Y0325304
G01X-0003827Y0324742
G01X-0004211Y0324583
G01X-0005971Y0323638
G01X-0007508Y0322362
G01X-000876Y0320807
G01X-0009623Y0319171
G01X-0009782Y0318788
G01X-0010358Y0316875
G01X-0010543Y0314886
G01X-0010502Y0314506
G01X-0010543Y0000001
G01X-0010344Y-0001986
G01X-0009782Y-0003827
G01X-0009623Y-0004211
G01X-0008678Y-0005971
G01X-0007402Y-0007508
G01X-0005846Y-000876
G01X-0004211Y-0009623
G01X-0003827Y-0009782
G01X-0001914Y-0010358
G01X0000075Y-0010543
G01X0000454Y-0010502
G01X0385499Y-0010543
G01X0385694Y-0010523
M16
M17
M30
